<?xml version="1.0" encoding="UTF-8"?>
<svg xmlns="http://www.w3.org/2000/svg" xmlns:xlink="http://www.w3.org/1999/xlink" version="1.1" viewBox="0 0 512 512">
  <defs>
    <style>
      .cls-1 {
        fill: #222;
      }

      .cls-1, .cls-2, .cls-3, .cls-4, .cls-5, .cls-6 {
        stroke-width: 0px;
      }

      .cls-2 {
        fill: #fefefe;
      }

      .cls-7 {
        fill: none;
        stroke: #cfcfcf;
        stroke-miterlimit: 10;
        stroke-width: 2px;
      }

      .cls-3 {
        fill: url(#Unbenannter_Verlauf_7);
      }

      .cls-4 {
        fill: url(#Unbenannter_Verlauf_5);
      }

      .cls-5 {
        fill: url(#Unbenannter_Verlauf_6);
      }

      .cls-6 {
        fill: url(#Unbenannter_Verlauf_4);
      }
    </style>
    <linearGradient id="Unbenannter_Verlauf_7" data-name="Unbenannter Verlauf 7" x1="16.84" y1="298.13" x2="161.72" y2="462.4" gradientUnits="userSpaceOnUse">
      <stop offset="0" stop-color="#dd5d55"/>
      <stop offset=".27" stop-color="#c74b4a"/>
      <stop offset=".81" stop-color="#8f202e"/>
      <stop offset="1" stop-color="#7b1024"/>
    </linearGradient>
    <linearGradient id="Unbenannter_Verlauf_6" data-name="Unbenannter Verlauf 6" x1="195.15" y1="492.35" x2="523.25" y2="387.33" gradientUnits="userSpaceOnUse">
      <stop offset="0" stop-color="#f7f43a"/>
      <stop offset=".15" stop-color="#e1e335"/>
      <stop offset=".48" stop-color="#a8b82a"/>
      <stop offset=".94" stop-color="#4f7517"/>
      <stop offset="1" stop-color="#426b15"/>
    </linearGradient>
    <linearGradient id="Unbenannter_Verlauf_5" data-name="Unbenannter Verlauf 5" x1="363.07" y1="55.38" x2="525.57" y2="217.52" gradientUnits="userSpaceOnUse">
      <stop offset="0" stop-color="#441f75"/>
      <stop offset=".18" stop-color="#59257c"/>
      <stop offset=".57" stop-color="#923690"/>
      <stop offset="1" stop-color="#d84ca9"/>
    </linearGradient>
    <linearGradient id="Unbenannter_Verlauf_4" data-name="Unbenannter Verlauf 4" x1="227.91" y1="-27.45" x2="38.92" y2="174.66" gradientUnits="userSpaceOnUse">
      <stop offset="0" stop-color="#80b6f5"/>
      <stop offset=".19" stop-color="#74a0e1"/>
      <stop offset=".59" stop-color="#5767b0"/>
      <stop offset="1" stop-color="#362778"/>
    </linearGradient>
  </defs>
  <g id="Ebene_9" data-name="Ebene 9">
    <polygon class="cls-3" points="0 153.03 94.32 153.03 216.02 420.98 171.41 512 0 512 0 153.03"/>
  </g>
  <g id="Ebene_8" data-name="Ebene 8">
    <path class="cls-5" d="M419.06,299.61h92.94v212.39H168.01c-31.99-73.26,45.98-93.06,45.98-93.06l205.07-119.32Z"/>
  </g>
  <g id="Ebene_7" data-name="Ebene 7">
    <path class="cls-4" d="M292.93.13L511.76,0v344.92c-72.77,31.17-93.11-45.74-93.11-45.74l-127.74-205.11L292.93.13Z"/>
  </g>
  <g id="Ebene_6" data-name="Ebene 6">
    <path class="cls-6" d="M0,0l344.88.13c33.23,76.27-47.67,93.21-47.67,93.21l-203.83,122.3S66.89,139.11.13,170.02L0,0Z"/>
  </g>
  <g id="Ebene_2" data-name="Ebene 2">
    <rect class="cls-1" x="91.81" y="91.96" width="328.79" height="328.79" rx="35.82" ry="35.82"/>
  </g>
  <g id="Ebene_4" data-name="Ebene 4">
    <polygon class="cls-2" points="298.1 130.07 171.07 130.07 170.84 382.75 213.11 382.75 212.93 172.82 297.71 172.09 298.1 130.07"/>
  </g>
  <g id="Ebene_5" data-name="Ebene 5">
    <polygon class="cls-2" points="339.78 170.95 297.71 170.95 297.71 255.93 214.06 255.93 214.06 297.85 297.88 297.85 297.88 382.44 339.65 382.44 339.78 170.95"/>
  </g>
  <g id="Ebene_3" data-name="Ebene 3">
    <g>
      <line class="cls-7" x1="128.78" y1="92.89" x2="128.61" y2="420.58"/>
      <line class="cls-7" x1="171.04" y1="92.89" x2="170.87" y2="420.58"/>
      <line class="cls-7" x1="255.55" y1="92.89" x2="255.38" y2="420.58"/>
      <line class="cls-7" x1="340.07" y1="92.89" x2="339.9" y2="420.58"/>
      <line class="cls-7" x1="297.81" y1="92.89" x2="297.64" y2="420.58"/>
      <line class="cls-7" x1="213.3" y1="92.89" x2="213.13" y2="420.58"/>
      <line class="cls-7" x1="382.33" y1="92.89" x2="382.16" y2="420.58"/>
    </g>
    <g>
      <line class="cls-7" x1="92.46" y1="383.42" x2="420.14" y2="383.59"/>
      <line class="cls-7" x1="92.46" y1="341.17" x2="420.14" y2="341.34"/>
      <line class="cls-7" x1="92.46" y1="256.65" x2="420.14" y2="256.82"/>
      <line class="cls-7" x1="92.46" y1="172.13" x2="420.14" y2="172.3"/>
      <line class="cls-7" x1="92.46" y1="214.39" x2="420.14" y2="214.56"/>
      <line class="cls-7" x1="92.46" y1="298.91" x2="420.14" y2="299.08"/>
      <line class="cls-7" x1="92.46" y1="129.88" x2="420.14" y2="130.05"/>
    </g>
  </g>
</svg>