<?xml version="1.0" encoding="UTF-8"?>
<svg width="72px" height="72px" viewBox="0 0 72 72" version="1.1" xmlns="http://www.w3.org/2000/svg" xmlns:xlink="http://www.w3.org/1999/xlink">
    <title>Settings Key</title>
    <g id="Settings-Key" stroke="none" stroke-width="1" fill="none" fill-rule="evenodd" transform="translate(0, -6)">
        <path d="M36 18C34.5 18 33.1 18.2 31.7 18.5L30.8 22.5C29.5 22.9 28.3 23.5 27.2 24.2L23.5 22.5C22.3 23.7 21.3 25.1 20.5 26.6L22.2 30.3C21.5 31.4 20.9 32.6 20.5 33.9L16.5 34.8C16.2 36.2 16 37.6 16 39.1C16 40.6 16.2 42 16.5 43.4L20.5 44.3C20.9 45.6 21.5 46.8 22.2 47.9L20.5 51.6C21.3 53.1 22.3 54.5 23.5 55.7L27.2 54C28.3 54.7 29.5 55.3 30.8 55.7L31.7 59.7C33.1 60 34.5 60.2 36 60.2C37.5 60.2 38.9 60 40.3 59.7L41.2 55.7C42.5 55.3 43.7 54.7 44.8 54L48.5 55.7C49.7 54.5 50.7 53.1 51.5 51.6L49.8 47.9C50.5 46.8 51.1 45.6 51.5 44.3L55.5 43.4C55.8 42 56 40.6 56 39.1C56 37.6 55.8 36.2 55.5 34.8L51.5 33.9C51.1 32.6 50.5 31.4 49.8 30.3L51.5 26.6C50.7 25.1 49.7 23.7 48.5 22.5L44.8 24.2C43.7 23.5 42.5 22.9 41.2 22.5L40.3 18.5C38.9 18.2 37.5 18 36 18Z" stroke="#FFFFFF" stroke-width="2" />
        <circle cx="36" cy="39" r="10" stroke="#FFFFFF" stroke-width="2" />
    </g>
</svg>
