<?xml version="1.0" encoding="UTF-8"?>
<svg width="20px" height="20px" viewBox="0 0 20 20" version="1.1" xmlns="http://www.w3.org/2000/svg" xmlns:xlink="http://www.w3.org/1999/xlink">
    <title>Display Icon</title>
    <g id="Display-Icon" stroke="none" stroke-width="1" fill="#FFFFFF" fill-rule="evenodd">
        <path d="M2.5 5.5C2.5 4.39543 3.39543 3.5 4.5 3.5H15.5C16.6046 3.5 17.5 4.39543 17.5 5.5V12.5C17.5 13.6046 16.6046 14.5 15.5 14.5H11.5C11.5 15.1667 11.5833 15.6667 11.75 16H13.5C13.7761 16 14 16.2239 14 16.5C14 16.7761 13.7761 17 13.5 17H6.5C6.22386 17 6 16.7761 6 16.5C6 16.2239 6.22386 16 6.5 16H8.25C8.41667 15.6667 8.5 15.1667 8.5 14.5H4.5C3.39543 14.5 2.5 13.6046 2.5 12.5V5.5ZM4.5 4.5C3.94772 4.5 3.5 4.94772 3.5 5.5V12.5C3.5 13.0523 3.94772 13.5 4.5 13.5H15.5C16.0523 13.5 16.5 13.0523 16.5 12.5V5.5C16.5 4.94772 16.0523 4.5 15.5 4.5H4.5Z" fill="#FFFFFF"/>
    </g>
</svg>
