<?xml version="1.0" encoding="UTF-8"?>
<svg width="72px" height="72px" viewBox="0 0 72 72" version="1.1" xmlns="http://www.w3.org/2000/svg" xmlns:xlink="http://www.w3.org/1999/xlink">
    <title>Display Key</title>
    <g id="Display-Key" stroke="none" stroke-width="1" fill="#FFFFFF" fill-rule="evenodd" transform="translate(0, -3)">
        <path d="M18 24C18 18 21 18 24 18H48C51 18 54 18 54 24V42C54 48 51 48 48 48H40C40 50 40.25 51.5 40.75 52.5H44C45.1046 52.5 46 53.3954 46 54.5C46 55.6046 45.1046 56.5 44 56.5H28C26.8954 56.5 26 55.6046 26 54.5C26 53.3954 26.8954 52.5 28 52.5H31.25C31.75 51.5 32 50 32 48H24C21 48 18 48 18 42V24ZM22.194 21.435C21.9197 21.5983 21.6827 21.8353 21.5194 22.1096C21.3561 22.3839 21.25 22.6839 21.25 23.03V42.97C21.25 43.3161 21.3561 43.6161 21.5194 43.8904C21.6827 44.1647 21.9197 44.4017 22.194 44.565C22.4683 44.7283 22.7683 44.8344 23.1144 44.8344L24.03 44.8344H47.97C48.3161 44.8344 48.6161 44.7283 48.8904 44.565C49.1647 44.4017 49.4017 44.1647 49.565 43.8904C49.7283 43.6161 49.8344 43.3161 49.8344 42.97L49.8344 41.97V23.03C49.8344 22.6839 49.7283 22.3839 49.565 22.1096C49.4017 21.8353 49.1647 21.5983 48.8904 21.435C48.6161 21.2717 48.3161 21.1656 47.97 21.1656H24.03C23.6839 21.1656 23.3839 21.2717 23.1096 21.435Z"/>
    </g>
</svg>
