<?xml version="1.0" encoding="UTF-8"?>
<svg width="20px" height="20px" viewBox="0 0 20 20" version="1.1" xmlns="http://www.w3.org/2000/svg" xmlns:xlink="http://www.w3.org/1999/xlink">
    <title>Transition Icon</title>
    <g id="Transition-Icon" stroke="none" stroke-width="1" fill="#FFFFFF" fill-rule="evenodd">
        <path d="M10 3a7 7 0 1 0 0 14 7 7 0 0 0 0-14zm-9 7a9 9 0 1 1 18 0 9 9 0 0 1-18 0z" fill="#FFFFFF"/>
        <!-- Play-Button -->
        <path d="M7.5 5.5a.5.5 0 0 0-.5.5v8a.5.5 0 0 0 .757.429l7-4a.5.5 0 0 0 0-.858l-7-4A.5.5 0 0 0 7.5 5.5z" fill="#FFFFFF"/>
    </g>
</svg>
