<?xml version="1.0" encoding="UTF-8"?>
<svg width="20px" height="20px" viewBox="0 0 20 20" version="1.1" xmlns="http://www.w3.org/2000/svg" xmlns:xlink="http://www.w3.org/1999/xlink">
    <title>Custom App Icon</title>
    <g stroke="none" stroke-width="1" fill="none" fill-rule="evenodd">
        <!-- Bootstrap app-indicator icon -->
        <g transform="translate(3, 3)" fill="#FFFFFF">
            <path d="M4.5 1A2.5 2.5 0 0 0 2 3.5v3A2.5 2.5 0 0 0 4.5 9h3a2.5 2.5 0 0 0 2.5-2.5V5a.5.5 0 0 1 1 0v1.5a3.5 3.5 0 0 1-3.5 3.5h-3A3.5 3.5 0 0 1 1 6.5v-3A3.5 3.5 0 0 1 4.5 0H6a.5.5 0 0 1 0 1H4.5z"/>
            <path d="M11 2a2 2 0 1 1-4 0 2 2 0 0 1 4 0z"/>
        </g>
    </g>
</svg>
