<?xml version="1.0" encoding="UTF-8"?>
<svg width="144px" height="144px" viewBox="0 0 144 144" version="1.1" xmlns="http://www.w3.org/2000/svg" xmlns:xlink="http://www.w3.org/1999/xlink">
    <title>Custom App Key</title>
    <g stroke="none" stroke-width="1" fill="none" fill-rule="evenodd">
        <!-- Bootstrap app-indicator icon with more padding -->
        <g transform="translate(36, 36)" fill="#FFFFFF">
            <path d="M24 8A16 16 0 0 0 8 24v24A16 16 0 0 0 24 64h24a16 16 0 0 0 16-16V36a4 4 0 0 1 8 0v12a24 24 0 0 1-24 24H24a24 24 0 0 1-24-24V24A24 24 0 0 1 24 0h12a4 4 0 0 1 0 8H24z"/>
            <path d="M64 16a12 12 0 1 1-24 0 12 12 0 0 1 24 0z"/>
        </g>
    </g>
</svg>
