<?xml version="1.0" encoding="UTF-8"?>
<svg xmlns="http://www.w3.org/2000/svg" width="16" height="16" fill="none" viewBox="0 0 16 16">
  <!-- Bootstrap Icons - X Circle (MIT License) -->
  <path d="M8 0a8 8 0 1 1 0 16A8 8 0 0 1 8 0z" stroke="white" stroke-width="1" fill="none"/>
  <path d="M4.646 4.646a.5.5 0 0 1 .708 0L8 7.293l2.646-2.647a.5.5 0 0 1 .708.708L8.707 8l2.647 2.646a.5.5 0 0 1-.708.708L8 8.707l-2.646 2.647a.5.5 0 0 1-.708-.708L7.293 8 4.646 5.354a.5.5 0 0 1 0-.708z" stroke="white" stroke-width="0.5" fill="white"/>
</svg>
